<svg id="レイヤー_1" data-name="レイヤー 1" xmlns="http://www.w3.org/2000/svg" viewBox="0 0 179.76 15.81"><defs><style>.cls-1{fill:#fff;}</style></defs><path id="パス_666" data-name="パス 666" class="cls-1" d="M10.22,0H0V15.53H2.72V8.47H8.4V6.33H2.72V2.15h7.5Zm8.3,0H15.26L10.5,15.53h2.56L14.4,11h4.76l1.32,4.56H23.3Zm.16,9h-3.8l.84-3.16c.34-1.2.62-2.32,1-3.8h.18c.34,1.46.58,2.6.92,3.82ZM36.74,0H33.9L31.36,4.37c-.22.4-.42.78-.64,1.16-.22-.38-.4-.74-.62-1.12L27.6,0H24.54L29,7.57l-4.82,8H27l2.9-5c.18-.34.34-.64.52-1,.2.32.34.62.54,1l2.88,5H37L32.12,7.47ZM54.58,0c-3.08,0-4.82,2.22-4.82,7.88s1.64,7.92,4.78,7.92,4.84-2.3,4.84-8S57.66,0,54.58,0Zm0,2c1.6,0,2.22,1.38,2.22,5.88s-.64,6-2.26,6-2.2-1.46-2.2-6S53,2,54.58,2Zm7,11.36c.62,1.64,1.94,2.46,4,2.46,3.28,0,5.2-2.38,5.2-8.48,0-5.14-1.94-7.32-5-7.32-2.8,0-4.6,2-4.6,5.34,0,3,1.74,4.92,4.06,4.92a3.26,3.26,0,0,0,3.12-1.82c-.1,4-1.08,5.44-2.78,5.44-.84,0-1.32-.44-1.6-1.46Zm6.72-6.92a2.63,2.63,0,0,1-2.42,1.92c-1.28,0-2.1-1.12-2.1-3.06s.68-3.36,2.16-3.36C67.54,1.93,68.24,3.45,68.26,6.43ZM75.2,4.05A2.12,2.12,0,0,1,77.32,2a1.94,1.94,0,0,1,2.1,1.76,1.61,1.61,0,0,1,0,.38c0,1.54-.8,2.4-2.8,2.4H75.56v2h1.16c2.14,0,3,1,3,2.76a2.29,2.29,0,0,1-2,2.57,2.54,2.54,0,0,1-.39,0c-1.32,0-2-.62-2.38-2.16l-2.46.72c.68,2.36,2.34,3.38,4.86,3.38,2.92,0,4.88-1.84,4.88-4.54A3.72,3.72,0,0,0,79,7.43V7.29a3.31,3.31,0,0,0,2.92-3.44c0-2.22-1.8-3.84-4.58-3.84a4.41,4.41,0,0,0-4.62,3.3ZM90.44,8.49H84.6v2h5.84Zm11.66-6a3.93,3.93,0,0,0-4-2.5c-3.24,0-5.28,2.44-5.28,8.48,0,5.16,2,7.32,4.9,7.32,2.74,0,4.66-2.06,4.66-5.36,0-3.08-1.62-4.94-4-4.94a3.51,3.51,0,0,0-3.12,1.8c.08-3.5.94-5.4,2.76-5.4.72,0,1.36.38,1.6,1.5ZM95.32,9.37a2.92,2.92,0,0,1,2.5-1.94c1.34,0,2.06,1.06,2.06,3.1,0,2.22-.76,3.36-2.16,3.36S95.32,12.59,95.32,9.37ZM110.46.17h-2A11.18,11.18,0,0,1,104.86,2l.4,2.1a10.64,10.64,0,0,0,2.82-1.36V13.59h-3v1.94h8.24V13.59h-2.86Zm11.92,7.18c1.8-.74,2.68-1.84,2.68-3.48,0-2.26-1.9-3.86-4.6-3.86S115.9,1.75,115.9,4a4,4,0,0,0,2.6,3.9c-2,1-3,2-3,3.8,0,2.58,1.92,4.16,4.94,4.16s4.92-1.7,4.92-4.24c0-2-.82-3.18-3-4.22Zm-2-1c-1.58-.74-2.08-1.4-2.08-2.44a2,2,0,0,1,1.92-2.08,2.61,2.61,0,0,1,.28,0,2.08,2.08,0,0,1,2.23,1.92,1.41,1.41,0,0,1,0,.2,2.73,2.73,0,0,1-1.8,2.66Zm.26,2.52c1.84.88,2.42,1.56,2.42,2.76A2.26,2.26,0,0,1,120.83,14a1.53,1.53,0,0,1-.37,0,2.35,2.35,0,0,1-2.54-2.16c0-.1,0-.21,0-.32,0-1.28.68-2.1,2.1-2.88Zm12.82-.4h-5.84v2h5.84ZM140.54,0c-3.08,0-4.82,2.22-4.82,7.88s1.64,7.92,4.78,7.92,4.84-2.3,4.84-8S143.62,0,140.54,0Zm0,2c1.6,0,2.22,1.38,2.22,5.88s-.64,6-2.26,6-2.2-1.46-2.2-6S139,2,140.54,2ZM153.9,7.35c1.8-.74,2.68-1.84,2.68-3.48,0-2.26-1.9-3.86-4.6-3.86S147.42,1.75,147.42,4a4,4,0,0,0,2.6,3.9c-2,1-3,2-3,3.8,0,2.58,1.92,4.16,4.94,4.16s4.92-1.7,4.92-4.24c0-2-.82-3.18-3-4.22Zm-2-1c-1.58-.74-2.08-1.4-2.08-2.44a2,2,0,0,1,1.92-2.08,2.61,2.61,0,0,1,.28,0,2.08,2.08,0,0,1,2.23,1.92,1.41,1.41,0,0,1,0,.2,2.73,2.73,0,0,1-1.8,2.66Zm.26,2.52c1.84.88,2.42,1.56,2.42,2.76A2.26,2.26,0,0,1,152.35,14a1.53,1.53,0,0,1-.37,0,2.35,2.35,0,0,1-2.54-2.16c0-.1,0-.21,0-.32,0-1.28.68-2.1,2.1-2.88ZM166.54.17h-3.16l-5,10.14v1.76h5.82v3.46h2.3V12.07h1.9V10.19h-1.9Zm-2.3,10H160.5l1.88-4c.62-1.34,1.2-2.68,1.7-4h.28c-.06,1.54-.12,3.06-.12,4.68Zm15.22-7.68a3.93,3.93,0,0,0-4-2.5c-3.24,0-5.28,2.44-5.28,8.48,0,5.16,2,7.32,4.9,7.32,2.74,0,4.66-2.06,4.66-5.36,0-3.08-1.62-4.94-4-4.94a3.51,3.51,0,0,0-3.12,1.8c.08-3.5.94-5.4,2.76-5.4.72,0,1.36.38,1.6,1.5Zm-6.78,6.86a2.92,2.92,0,0,1,2.5-1.94c1.34,0,2.06,1.06,2.06,3.1,0,2.22-.76,3.36-2.16,3.36S172.68,12.59,172.68,9.37Z"/></svg>