<svg id="レイヤー_1" data-name="レイヤー 1" xmlns="http://www.w3.org/2000/svg" viewBox="0 0 180.26 15.81"><defs><style>.cls-1{fill:#fff;}</style></defs><path id="パス_666" data-name="パス 666" class="cls-1" d="M11.92,0H0V2.19H4.58V15.53H7.3V2.19h4.62ZM24.64,0H14.4V15.53H24.8V13.39H17.1v-5h5.7V6.25H17.1V2.15h7.54Zm5.44,0H27.36V15.53h10V13.35H30.08Zm25,0C52,0,50.3,2.23,50.3,7.89s1.64,7.92,4.78,7.92,4.84-2.3,4.84-8S58.2,0,55.12,0Zm0,2c1.6,0,2.22,1.38,2.22,5.88s-.64,6-2.26,6-2.2-1.46-2.2-6S53.56,2,55.12,2Zm7,11.36c.62,1.64,1.94,2.46,4,2.46,3.28,0,5.2-2.38,5.2-8.48,0-5.14-1.94-7.32-5-7.32-2.8,0-4.6,2-4.6,5.34,0,3,1.74,4.92,4.06,4.92a3.26,3.26,0,0,0,3.12-1.82c-.1,4-1.08,5.44-2.78,5.44-.84,0-1.32-.44-1.6-1.46ZM68.8,6.43a2.63,2.63,0,0,1-2.42,1.92c-1.28,0-2.1-1.12-2.1-3.06S65,1.93,66.44,1.93C68.08,1.93,68.78,3.45,68.8,6.43Zm6.94-2.38A2.12,2.12,0,0,1,77.86,2,1.94,1.94,0,0,1,80,3.71a1.61,1.61,0,0,1,0,.38c0,1.54-.8,2.4-2.8,2.4H76.1v2h1.16c2.14,0,3,1,3,2.76a2.29,2.29,0,0,1-2,2.57,2.54,2.54,0,0,1-.39,0c-1.32,0-2-.62-2.38-2.16L73,12.43c.68,2.36,2.34,3.38,4.86,3.38,2.92,0,4.88-1.84,4.88-4.54a3.72,3.72,0,0,0-3.22-3.84V7.29a3.31,3.31,0,0,0,2.92-3.44C82.48,1.63,80.68,0,77.9,0a4.41,4.41,0,0,0-4.62,3.3ZM91,8.49H85.14s-1.46,1.47,0,2,5.84,0,5.84,0Zm11.66-6a3.93,3.93,0,0,0-4-2.5c-3.24,0-5.28,2.44-5.28,8.48,0,5.16,2,7.32,4.9,7.32,2.74,0,4.66-2.06,4.66-5.36,0-3.08-1.62-4.94-4-4.94a3.51,3.51,0,0,0-3.12,1.8c.08-3.5.94-5.4,2.76-5.4.72,0,1.36.38,1.6,1.5ZM95.86,9.37a2.92,2.92,0,0,1,2.5-1.94c1.34,0,2.06,1.06,2.06,3.1,0,2.22-.76,3.36-2.16,3.36S95.86,12.59,95.86,9.37ZM111,.17h-2A11.18,11.18,0,0,1,105.4,2l.4,2.1a10.64,10.64,0,0,0,2.82-1.36V13.59h-3v1.94h8.24V13.59H111Zm11.92,7.18c1.8-.74,2.68-1.84,2.68-3.48C125.6,1.61,123.7,0,121,0S116.44,1.75,116.44,4a4,4,0,0,0,2.6,3.9c-2,1-3,2-3,3.8,0,2.58,1.92,4.16,4.94,4.16s4.92-1.7,4.92-4.24C125.94,9.59,125.12,8.39,122.92,7.35Zm-2-1c-1.58-.74-2.08-1.4-2.08-2.44a2,2,0,0,1,1.92-2.08,2.61,2.61,0,0,1,.28,0,2.08,2.08,0,0,1,2.23,1.92,1.41,1.41,0,0,1,0,.2,2.73,2.73,0,0,1-1.8,2.66Zm.26,2.52c1.84.88,2.42,1.56,2.42,2.76A2.26,2.26,0,0,1,121.37,14a1.53,1.53,0,0,1-.37,0,2.35,2.35,0,0,1-2.54-2.16c0-.1,0-.21,0-.32,0-1.28.68-2.1,2.1-2.88ZM134,8.49h-5.84v2H134ZM142.52.17h-2A11.18,11.18,0,0,1,136.92,2l.4,2.1a10.64,10.64,0,0,0,2.82-1.36V13.59h-3v1.94h8.24V13.59h-2.86ZM154,.17h-2A11.18,11.18,0,0,1,148.38,2l.4,2.1a10.64,10.64,0,0,0,2.82-1.36V13.59h-3v1.94h8.24V13.59H154Zm11.46,0h-2A11.18,11.18,0,0,1,159.84,2l.4,2.1a10.64,10.64,0,0,0,2.82-1.36V13.59h-3v1.94h8.24V13.59h-2.86Zm10-.16c-3.08,0-4.82,2.22-4.82,7.88s1.64,7.92,4.78,7.92,4.84-2.3,4.84-8S178.54,0,175.46,0Zm0,2c1.6,0,2.22,1.38,2.22,5.88s-.64,6-2.26,6-2.2-1.46-2.2-6S173.9,2,175.46,2Z"/></svg>