<svg xmlns="http://www.w3.org/2000/svg" width="340.674" height="52.393" viewBox="0 0 340.674 52.393">
  <g id="グループ_272" data-name="グループ 272" transform="translate(-185 -82.935)">
    <text id="満井電気計測株式会社" transform="translate(400.674 119)" fill="#fff" font-size="25" font-family="HiraginoSans-W6, Hiragino Sans"><tspan x="-125" y="0">満井電気計測株式会社</tspan></text>
    <g id="グループ_31" data-name="グループ 31" transform="translate(185 82.935)">
      <g id="グループ_4" data-name="グループ 4" transform="translate(0 0.001)">
        <rect id="長方形_9" data-name="長方形 9" width="49.941" height="2.679" transform="matrix(0.792, -0.611, 0.611, 0.792, 0, 30.495)" fill="#fff"/>
        <rect id="長方形_10" data-name="長方形 10" width="49.941" height="2.679" transform="matrix(0.792, -0.611, 0.611, 0.792, 30.834, 50.269)" fill="#fff"/>
      </g>
      <g id="グループ_5" data-name="グループ 5" transform="translate(0.001 0)">
        <rect id="長方形_11" data-name="長方形 11" width="2.679" height="49.941" transform="translate(30.834 2.121) rotate(-52.361)" fill="#fff"/>
        <rect id="長方形_12" data-name="長方形 12" width="2.679" height="49.941" transform="translate(0 21.895) rotate(-52.361)" fill="#fff"/>
      </g>
      <g id="グループ_6" data-name="グループ 6" transform="translate(24.044 15.61)">
        <path id="パス_7" data-name="パス 7" d="M181.384,222.986a15.5,15.5,0,0,0-4.021-1.936l1.266-2.234a13.563,13.563,0,0,1,4.021,1.787Zm.844,7.744a18.355,18.355,0,0,0-.993,2.482c0,.075.074.5.074.571,0,.173-.173.223-.322.223a1.063,1.063,0,0,1-.521-.124l-2.581-1.266a44.435,44.435,0,0,0,3.872-8.091l2.258,1.762C183.618,227.4,182.55,230.01,182.228,230.73ZM183.1,217.3a17.417,17.417,0,0,0-3.624-2.085l1.192-2.16a16.4,16.4,0,0,1,3.723,1.887Zm10,3.847v1.291h6.031v10.2c0,1.588-.795,1.812-3.723,1.836l-1.068-2.8a9.345,9.345,0,0,0,1.365.1c.62,0,.944-.1.944-.745V224.7H193.1v3.823h.645v-2.706l2.11.075c.149,0,.5.049.5.322a.221.221,0,0,1-.124.2c-.273.248-.372.322-.372.446v3.7h-5.708V231.8h-2.11v-6.08l2.035.1c.124,0,.5.075.5.348,0,.074-.025.124-.2.248a.456.456,0,0,0-.223.347v1.762h.695V224.7h-3.674v9.7h-2.531V222.441h6.2V221.15h-6.627v-2.209h3.8V217.4h-2.978v-2.284h2.978v-2.135l2.631.174c.322.024.545.1.545.322a.269.269,0,0,1-.173.248c-.1.1-.347.248-.347.347v1.043h2.581v-2.184l2.73.123c.248,0,.7.05.7.348,0,.124-.124.223-.224.3-.446.248-.5.273-.5.372v1.043h2.8V217.4h-2.8v1.539h3.425v2.209Zm.149-3.748h-2.581v1.539h2.581Z" transform="translate(-177.363 -212.935)" fill="#fff"/>
      </g>
    </g>
  </g>
</svg>
