<svg xmlns="http://www.w3.org/2000/svg" width="27.818" height="9.534" viewBox="0 0 27.818 9.534">
  <g id="グループ_10" data-name="グループ 10" transform="translate(-1323.005 -429.112)">
    <path id="パス_656" data-name="パス 656" d="M-8.4-9.338l-2.142,6.02L-12.7-9.338h-1.2V0h1.428V-5.32L-11.256-1.9a.751.751,0,0,0,.714.546.748.748,0,0,0,.7-.546L-8.624-5.32V0H-7.2V-9.338Zm4.942,5.124h1.134c.728,0,1.19-.392,1.19-1.022v-.35H-3.458V-7.42c0-.336.182-.546.462-.546h2.52V-9.338h-4.41V0H-.28V-1.372H-3.458ZM1.694,0H3.122V-6.006L5.446,0H6.678V-9.338H5.25V-3.71L3.3-8.82a.835.835,0,0,0-.8-.616.816.816,0,0,0-.574.224c-.182.182-.238.392-.238.882ZM13.916-9.394H13.51c-.63,0-1.022.448-1.022,1.19V-2.59c0,.77-.42,1.316-1.008,1.316h-.112c-.574,0-.994-.546-.994-1.316V-9.338H8.946v6.594A2.863,2.863,0,0,0,9.7-.6a2.309,2.309,0,0,0,1.666.7h.112a2.317,2.317,0,0,0,1.68-.7,2.842,2.842,0,0,0,.756-2.142Z" transform="translate(1336.907 438.548)" fill="#fff"/>
  </g>
</svg>
