<svg xmlns="http://www.w3.org/2000/svg" width="58.086" height="259.615" viewBox="0 0 58.086 259.615">
  <g id="グループ_272" data-name="グループ 272" transform="translate(-1315.293 -56.003)">
    <g id="グループ_7" data-name="グループ 7" transform="translate(1315.293 56.003)">
      <g id="グループ_4" data-name="グループ 4" transform="translate(0 0.001)">
        <rect id="長方形_9" data-name="長方形 9" width="40.28" height="2.16" transform="matrix(0.792, -0.611, 0.611, 0.792, 0, 24.596)" fill="#fff"/>
        <rect id="長方形_10" data-name="長方形 10" width="40.28" height="2.16" transform="matrix(0.792, -0.611, 0.611, 0.792, 24.869, 40.544)" fill="#fff"/>
      </g>
      <g id="グループ_5" data-name="グループ 5" transform="translate(0.001 0)">
        <rect id="長方形_11" data-name="長方形 11" width="2.16" height="40.28" transform="translate(24.869 1.711) rotate(-52.361)" fill="#fff"/>
        <rect id="長方形_12" data-name="長方形 12" width="2.16" height="40.28" transform="translate(0 17.659) rotate(-52.361)" fill="#fff"/>
      </g>
      <g id="グループ_6" data-name="グループ 6" transform="translate(19.392 12.59)">
        <path id="パス_7" data-name="パス 7" d="M180.606,221.042a12.5,12.5,0,0,0-3.243-1.562l1.021-1.8a10.939,10.939,0,0,1,3.243,1.441Zm.68,6.246a14.806,14.806,0,0,0-.8,2c0,.06.06.4.06.461,0,.14-.14.18-.26.18a.858.858,0,0,1-.421-.1l-2.082-1.021a35.837,35.837,0,0,0,3.123-6.526l1.821,1.421C182.408,224.605,181.546,226.707,181.286,227.287Zm.7-10.829a14.048,14.048,0,0,0-2.923-1.682l.961-1.742a13.228,13.228,0,0,1,3,1.522Zm8.067,3.1V220.6h4.865v8.227c0,1.281-.641,1.462-3,1.481l-.861-2.262a7.536,7.536,0,0,0,1.1.08c.5,0,.761-.08.761-.6v-5.105h-2.863v3.083h.521v-2.182l1.7.06c.12,0,.4.04.4.26a.179.179,0,0,1-.1.161c-.22.2-.3.26-.3.36v2.982h-4.6v1h-1.7v-4.9l1.642.08c.1,0,.4.06.4.281,0,.06-.02.1-.16.2a.368.368,0,0,0-.18.28v1.421h.56v-3.083H185.27v7.827h-2.041V220.6h5v-1.041h-5.345v-1.781h3.063v-1.241h-2.4V214.7h2.4v-1.722l2.122.14c.26.019.44.08.44.26a.217.217,0,0,1-.14.2c-.081.081-.28.2-.28.28v.841h2.082v-1.761l2.2.1c.2,0,.561.04.561.281,0,.1-.1.18-.181.24-.36.2-.4.22-.4.3v.841h2.262v1.842h-2.262v1.241h2.763v1.781Zm.12-3.023h-2.082v1.241h2.082Z" transform="translate(-177.363 -212.935)" fill="#fff"/>
      </g>
    </g>
    <g id="グループ_8" data-name="グループ 8" transform="translate(1334.783 113.531)">
      <path id="パス_8" data-name="パス 8" d="M160.469,288.335a12.7,12.7,0,0,0-3.319-1.6l1.045-1.845a11.192,11.192,0,0,1,3.319,1.476Zm.7,6.39a15.2,15.2,0,0,0-.82,2.048c0,.063.061.41.061.471,0,.144-.143.185-.266.185a.877.877,0,0,1-.43-.1l-2.13-1.044a36.649,36.649,0,0,0,3.2-6.679l1.864,1.454C162.312,291.981,161.433,294.133,161.166,294.726Zm.716-11.083a14.375,14.375,0,0,0-2.991-1.722l.984-1.782a13.488,13.488,0,0,1,3.073,1.556Zm8.258,3.176v1.064h4.978V296.3c0,1.31-.654,1.495-3.073,1.515l-.88-2.315a7.638,7.638,0,0,0,1.126.082c.512,0,.779-.082.779-.615v-5.224h-2.93V292.9h.533v-2.233l1.741.06c.123,0,.41.041.41.268a.182.182,0,0,1-.1.162c-.225.2-.307.266-.307.369v3.053H167.7v1.025h-1.742v-5.02l1.681.084c.1,0,.41.06.41.287,0,.06-.021.1-.164.2a.373.373,0,0,0-.184.287V292.9h.574v-3.155h-3.032v8.01h-2.091v-9.875h5.123v-1.064H162.8v-1.824h3.135v-1.269h-2.458v-1.886h2.458v-1.761l2.171.143c.268.021.453.082.453.267a.225.225,0,0,1-.143.2c-.084.082-.287.205-.287.287v.859h2.13v-1.8l2.253.1c.205,0,.574.041.574.287,0,.1-.1.184-.184.246-.369.2-.41.225-.41.307v.859h2.315v1.886h-2.315v1.269h2.827v1.824Zm.123-3.094h-2.13v1.269h2.13Z" transform="translate(-156.884 -280.037)" fill="#fff"/>
      <path id="パス_9" data-name="パス 9" d="M170.778,303.977v5.777h-2.5v-5.777h-4.158a7.612,7.612,0,0,1-4.508,6.351l-2.069-1.884c2.52-.943,3.83-2.6,3.932-4.467h-3.953v-2.356h4.221v-3.729h-3.934V295.6h3.934v-3.545l2.561.123c.43.02.533.123.533.328,0,.1-.062.164-.186.226-.369.224-.388.224-.388.367v2.5h4.014v-3.586l2.583.143c.287.021.449.1.449.287,0,.1-.06.143-.144.2-.306.205-.388.246-.388.39V295.6h3.789v2.294h-3.789v3.729h4.158v2.356Zm-2.5-6.085h-4.014v3.729h4.014Z" transform="translate(-156.62 -271.555)" fill="#fff"/>
      <path id="パス_10" data-name="パス 10" d="M172.5,310.76v-2.417h-5.244v3.483h-2.214v-3.483H159.76v2.54h-2.13v-4.014h7.415v-.9H158.86v-1.7h14.628v1.7h-6.228v.9h7.456v3.891Zm-.123,10.8h-5.531A1.66,1.66,0,0,1,165,319.671v-.943h-3.112v1.045h-2.316V312.5h13.235v6.226h-5.552v.412c0,.408.1.615.593.615H172.3c.676,0,1.045-.248,1.168-1.865l1.782.82C174.675,321.27,174.2,321.557,172.38,321.557Zm-11.739-11.493v-1.045H164.2v1.045Zm.041,1.659v-.984H164.2v.984ZM165,313.935h-3.112v.963H165Zm0,2.315h-3.112v1.025H165Zm5.553-2.315h-3.3v.963h3.3Zm0,2.315h-3.3v1.025h3.3ZM168.12,310v-.984h3.625V310Zm.062,1.659V310.7h3.6v.963Z" transform="translate(-156.544 -262.879)" fill="#fff"/>
      <path id="パス_11" data-name="パス 11" d="M161.437,319.471a18.064,18.064,0,0,1-2.009,2.95l-2.11-1.146a14.289,14.289,0,0,0,3.032-5.429l2.5.654c.082.021.287.082.287.226a.3.3,0,0,1-.041.144l-.287.143c-.1.061-.123.123-.369.615h11.187v1.843Zm4.875,14.363a27.811,27.811,0,0,0-2.212-2.622,14.093,14.093,0,0,1-4.61,2.991l-1.495-1.824a10.8,10.8,0,0,0,4.486-2.622,12.741,12.741,0,0,0-2.52-1.556l1.168-1.865a15.678,15.678,0,0,1,2.786,1.7,14.2,14.2,0,0,0,1.209-2.21l1.946.859c.1.041.328.164.328.328,0,.1-.1.143-.164.164a.862.862,0,0,0-.308.164,17.819,17.819,0,0,1-1.312,2.11,26.485,26.485,0,0,1,2.644,2.766Zm7.212.348a3.509,3.509,0,0,1-2.52-2.193,13.655,13.655,0,0,1-.984-6.493h-10.88v-2.009H172.5a22.677,22.677,0,0,0-.246,3.339c0,2.069.43,4.342,1.189,4.342.347,0,.531-1.126.553-1.454l1.6,1.168C175.244,332.4,174.672,334.182,173.524,334.182Zm-11.9-11.78v-1.845h9.959V322.4Z" transform="translate(-156.765 -254.677)" fill="#fff"/>
      <path id="パス_12" data-name="パス 12" d="M157.4,333.052v-1.886h8.071v1.886Zm5.1,12.149v-.492h-2.356v.635h-2.212v-6.351h6.823V345.2Zm-4.117-7.007v-1.761h6.085v1.761Zm.08-2.561v-1.782h6.085v1.782Zm.184-5.225v-1.782h5.84v1.782Zm3.852,10.531h-2.356v1.845H162.5ZM171.722,336v9.711h-2.458V336h-3.381v-2.335h3.381v-5.594l2.7.267c.123.02.328.061.328.225,0,.144-.184.246-.267.307-.143.082-.307.185-.307.369v4.426H175.1V336Z" transform="translate(-156.705 -246.017)" fill="#fff"/>
      <path id="パス_13" data-name="パス 13" d="M160.312,348.077a17.4,17.4,0,0,0-3.258-1.392l.9-1.966a12.954,12.954,0,0,1,3.258,1.454Zm1.086,4.733c-.184.389-1.107,2.315-1.312,2.745a4.45,4.45,0,0,0-.471,1.31c-.019.369-.019.492-.225.492a.593.593,0,0,1-.328-.143l-1.946-1.433a42.121,42.121,0,0,0,3.442-6.556l1.823,1.269C161.931,351.581,161.746,352.011,161.4,352.811Zm1.372-.082v-10.9l-1.208,1.782a12.239,12.239,0,0,0-2.909-1.722l1.269-1.925a21.56,21.56,0,0,1,2.848,1.741v-1.351h6.187v12.374Zm3.012,1.679a23.277,23.277,0,0,1-2.745,3.032l-2.13-1.31a10.536,10.536,0,0,0,3.155-3.319l2.048,1.064c.062.041.205.125.205.268C166.314,354.328,166.15,354.367,165.781,354.408Zm1.148-12.108h-2.192v1.476h2.192Zm0,3.381h-2.192v1.578h2.192Zm0,3.483h-2.192v1.577h2.192Zm1.966,7.868a12.107,12.107,0,0,1-2.52-3.319l1.8-.922a13.591,13.591,0,0,0,2.378,2.971Zm3.34-14.978c-.184.164-.246.225-.246.369v10.039H169.92V341.378l1.988.207c.121.019.408.08.408.287A.25.25,0,0,1,172.235,342.054Zm3.258-1.269c-.164.2-.328.369-.328.553v14.873c0,1.372-.962,1.495-3.256,1.536l-.963-2.4a4.774,4.774,0,0,0,1.146.143c.881,0,.9-.615.9-.738V340.088l2.089.184c.328.021.512.1.512.308A.226.226,0,0,1,175.493,340.785Z" transform="translate(-156.952 -237.595)" fill="#fff"/>
      <path id="パス_14" data-name="パス 14" d="M163.817,363.161a7.356,7.356,0,0,1-1.189-1.269v7.825h-2.089v-7.13a13.934,13.934,0,0,1-1.864,3.094l-1.681-1.228a17.293,17.293,0,0,0,3.278-7.069h-2.52v-1.925h2.786v-3.422l1.864.143c.164.02.594.041.594.246a.337.337,0,0,1-.164.246c-.082.062-.2.164-.2.225v2.561h2.255v1.925h-2.255v1.127a8.628,8.628,0,0,0,2.458,3.073Zm10.941,5.287a16.836,16.836,0,0,1-3.463-3.708v4.978h-2.07v-5.265a25.06,25.06,0,0,1-4.219,4.59l-1.681-1.476a16.744,16.744,0,0,0,5.1-6.146h-2.952v-1.987h3.75v-2.111H167.4a10.458,10.458,0,0,1-.84,1.5l-1.763-.9a11.172,11.172,0,0,0,1.968-4.836l1.741.412c.43.1.43.2.43.265,0,.123-.041.164-.2.225-.041.021-.225.1-.225.144-.162.594-.246.9-.367,1.271h1.085v-3.319l2.05.143c.164.021.552.041.552.266a.273.273,0,0,1-.162.226c-.328.266-.369.287-.369.389V355.4h3.85v1.925H171.3v2.111h4.117v1.987h-3.748a11.635,11.635,0,0,0,4.609,5.408Z" transform="translate(-156.994 -229.046)" fill="#fff"/>
      <path id="パス_15" data-name="パス 15" d="M166.951,379.845c-1.783.348-5.941,1.127-5.962,1.127-.2.041-1.209.185-1.435.225a1.551,1.551,0,0,0-.982.389c-.266.307-.287.348-.43.348a.255.255,0,0,1-.266-.225l-.39-2.52c1.127-.143,1.843-.246,3.586-.471V374.5h-3.2v-2.212h8.317V374.5h-2.622v3.873c1.332-.164,1.761-.226,3.483-.471Zm6.105,1.742c-2.212,0-4.16-3.319-4.916-5.06a21.342,21.342,0,0,1-1.742-6.619h-8.891V367.7h8.686c-.123-1.638-.184-2.356-.184-3.522l1.845.224c.572.062.921.123.921.41,0,.1-.062.164-.225.246-.224.123-.246.205-.246.287.062,1.228.062,1.537.082,2.356h6.495v2.212h-6.351a19.439,19.439,0,0,0,2.335,6.925c.779,1.312,1.455,1.865,1.927,1.865.451,0,.861-1.435.984-1.906l1.659,1.558C175.269,378.965,174.49,381.587,173.056,381.587Zm-.533-13.932a18.338,18.338,0,0,0-2.766-2.069l1.148-1.537a15.9,15.9,0,0,1,2.948,1.845Z" transform="translate(-156.646 -220.539)" fill="#fff"/>
      <path id="パス_16" data-name="パス 16" d="M173.751,383.673a12.335,12.335,0,0,1-2.357-1.086v1.742h-9.875v-1.681a18.145,18.145,0,0,1-2.561,1.332l-1.556-1.8a14.4,14.4,0,0,0,7.477-6.247l2.931.511c.162.02.306.123.306.267a.292.292,0,0,1-.184.266,15.269,15.269,0,0,0,3.463,2.93,18.661,18.661,0,0,0,3.975,1.8ZM172.4,393.917a14.2,14.2,0,0,0-1.351-1.824c-2.807.348-7.417.861-8.012.922-.43.041-2.6.225-3.094.307a.259.259,0,0,0-.205.143c-.123.246-.184.307-.246.307a.24.24,0,0,1-.184-.185l-.656-2.684c1.291,0,1.865-.02,2.89-.061.512-.82.941-1.537,1.864-3.3h-4.651v-1.988h15.06v1.988h-4.323a30.289,30.289,0,0,1,4.773,4.834Zm-6.085-15.632a19.988,19.988,0,0,1-4.242,4.016h8.809A18.62,18.62,0,0,1,166.314,378.286Zm1.474,10.755,1.476-1.495h-3.073c-.963,1.7-1.556,2.6-1.925,3.155,1.72-.082,3.422-.185,5.121-.39A12.4,12.4,0,0,0,167.788,389.041Z" transform="translate(-156.705 -212.124)" fill="#fff"/>
      <path id="パス_17" data-name="パス 17" d="M164.789,400.6a14.365,14.365,0,0,1-2.233-1.968v6.966h-2.151v-5.738a13.062,13.062,0,0,1-1.8,1.394l-1.537-1.577A15.516,15.516,0,0,0,162.495,394h-4.588v-2.214h2.458v-3.645l2.376.265c.123.02.226.082.226.184a.3.3,0,0,1-.143.205c-.285.287-.328.328-.328.41v2.581h2.214l.921.922a15.57,15.57,0,0,1-2.253,3.872,11.112,11.112,0,0,0,2.643,2.294Zm-1,4.629v-2.212h4.836v-6.843h-3.094v-2.214h3.094V388.1l2.52.244c.1,0,.224.082.224.185a.317.317,0,0,1-.1.2c-.162.164-.287.267-.287.349v4.875h3.75v2.214h-3.75v6.843h4.262v2.212Z" transform="translate(-156.943 -203.507)" fill="#fff"/>
    </g>
  </g>
</svg>
