<svg xmlns="http://www.w3.org/2000/svg" width="1195.95" height="173.655" viewBox="0 0 1195.95 173.655">
  <g id="グループ_33" data-name="グループ 33" transform="translate(-465.36 -371.742)">
    <path id="パス_655" data-name="パス 655" d="M121.125-170.085,82.11-60.435,42.84-170.085H20.91V0H46.92V-96.9L69.1-34.68c2.3,6.375,7.14,9.945,13.005,9.945,5.61,0,10.455-3.57,12.75-9.945L117.045-96.9V0h26.01V-170.085Zm64.005,0V0h26.01V-170.085ZM297.84-145.1h9.945c13.26,0,21.675-7.14,21.675-18.615v-6.375h-86.7v24.99h29.07V0h26.01Zm141.27-.765c-9.69-17.595-22.695-26.01-40.29-26.01h-3.825c-22.185,0-40.29,19.89-40.29,44.115v2.295c0,11.22,4.845,20.4,15.045,28.815L410.8-62.985c4.845,4.08,6.885,8.67,6.885,16.83v3.57c0,10.965-8.415,19.635-19.125,19.635h-1.53c-10.965,0-18.87-8.67-19.125-20.4v-6.12H351.9V-43.6c0,13.77,4.335,23.97,13.77,32.895,8.925,8.67,18.615,12.5,31.11,12.5h2.3c12.24,0,21.93-3.825,30.855-12.5,9.945-9.435,13.77-18.615,13.77-33.15v-6.12c0-13.26-3.315-21.42-12.24-28.815l-44.88-37.74a16.986,16.986,0,0,1-5.865-12.24v-1.275c0-8.415,7.65-16.83,15.555-16.83h2.55a14.02,14.02,0,0,1,10.455,3.825c5.1,4.08,8.415,5.61,13.515,5.61,4.335,0,7.9-1.53,11.985-4.845ZM569.925-171.1H562.53c-11.475,0-18.615,8.16-18.615,21.675V-47.175c0,14.025-7.65,23.97-18.36,23.97h-2.04c-10.455,0-18.105-9.945-18.105-23.97v-122.91H479.4v120.1c0,17.085,4.335,29.325,13.77,39.015a42.052,42.052,0,0,0,30.345,12.75h2.04a42.2,42.2,0,0,0,30.6-12.75c9.435-9.69,13.77-21.675,13.77-39.015Zm41.565,1.02V0H637.5V-170.085Zm68.085,0V0h44.37c13,0,23.2-4.08,31.875-12.75,9.945-9.69,14.025-20.91,14.025-39.015V-118.32c0-18.105-3.825-28.815-13.77-38.76-8.925-8.925-19.125-13-32.895-13ZM705.585-24.99V-135.15c0-6.12,3.315-9.945,8.415-9.945h10.455c11.985,0,19.38,9.18,19.38,23.97V-48.96c0,15.045-7.14,23.97-19.38,23.97ZM833.85-76.755h20.655c13.26,0,21.675-7.14,21.675-18.615v-6.375H833.85v-33.4c0-6.12,3.315-9.945,8.415-9.945h45.9v-24.99H807.84V0h83.9V-24.99H833.85ZM927.69,0H953.7V-109.395L996.03,0h22.44V-170.085H992.46v102.51L957.015-160.65c-2.8-7.4-7.9-11.22-14.535-11.22a14.856,14.856,0,0,0-10.455,4.08c-3.315,3.315-4.335,7.14-4.335,16.065Zm132.6-171.1V0h26.01V-73.95L1132.455,0h28.56L1106.7-87.465l47.175-82.62h-28.3L1086.3-101.49v-47.94c0-13.515-7.14-21.675-18.615-21.675Zm130.56,1.02V0h26.01V-170.085Z" transform="translate(444.45 543.612)" fill="#fff"/>
  </g>
</svg>
