<svg xmlns="http://www.w3.org/2000/svg" width="130.08" height="27.28" viewBox="0 0 130.08 27.28">
  <path id="パス_664" data-name="パス 664" d="M19-26.68,12.88-9.48,6.72-26.68H3.28V0H7.36V-15.2l3.48,9.76a2.147,2.147,0,0,0,2.04,1.56,2.137,2.137,0,0,0,2-1.56l3.48-9.76V0h4.08V-26.68ZM40,0h3.88L38.04-24.76C37.68-26.28,36.92-27,35.68-27c-1.28,0-2,.68-2.36,2.24L27.48,0h3.88l1.2-5.08h6.2ZM33.48-9.08l2.2-9.32,2.2,9.32ZM60.56-24.44c-2.12-2.04-3.16-2.52-5.28-2.52h-.36a6.6,6.6,0,0,0-4.76,2A8.119,8.119,0,0,0,48-18.84v11a8.024,8.024,0,0,0,2.16,6.08A6.5,6.5,0,0,0,54.96.28h.36c2.72,0,4.56-1.24,6.24-4.08l-.72-.56a2.723,2.723,0,0,0-1.88-.76,3.134,3.134,0,0,0-2.12.88,2.29,2.29,0,0,1-1.52.6h-.36c-1.64,0-2.88-1.56-2.88-3.72V-19.24c0-2.28,1.16-3.8,2.84-3.8h.36c.84,0,1.32.28,2.44,1.44ZM71-15.72v-7.72c0-2.12-1.12-3.4-2.92-3.4H66.92V0H71V-11.8h7.24V0h4.08V-26.84H81.16c-1.8,0-2.92,1.28-2.92,3.4v7.72ZM88.72-26.68V0H92.8V-26.68ZM99.4,0h4.08V-17.16L110.12,0h3.52V-26.68h-4.08V-10.6L104-25.2a2.387,2.387,0,0,0-2.28-1.76,2.33,2.33,0,0,0-1.64.64c-.52.52-.68,1.12-.68,2.52Zm24.88-12.04h3.24c2.08,0,3.4-1.12,3.4-2.92v-1h-6.64V-21.2c0-.96.52-1.56,1.32-1.56h7.2v-3.92H120.2V0h13.16V-3.92h-9.08Z" transform="translate(-3.28 27)" fill="#fff"/>
</svg>
