<svg xmlns="http://www.w3.org/2000/svg" width="136.56" height="27.28" viewBox="0 0 136.56 27.28">
  <path id="パス_663" data-name="パス 663" d="M15.36-24.44c-2.12-2.04-3.16-2.52-5.28-2.52H9.72a6.6,6.6,0,0,0-4.76,2A8.119,8.119,0,0,0,2.8-18.84v11A8.024,8.024,0,0,0,4.96-1.76,6.5,6.5,0,0,0,9.76.28h.36c2.72,0,4.56-1.24,6.24-4.08l-.72-.56a2.723,2.723,0,0,0-1.88-.76,3.134,3.134,0,0,0-2.12.88,2.29,2.29,0,0,1-1.52.6H9.76c-1.64,0-2.88-1.56-2.88-3.72V-19.24c0-2.28,1.16-3.8,2.84-3.8h.36c.84,0,1.32.28,2.44,1.44ZM21.2-7.84c0,2.84.6,4.52,2.16,6.12a6.6,6.6,0,0,0,4.76,2h.32a6.6,6.6,0,0,0,4.76-2c1.56-1.6,2.16-3.28,2.16-6.12v-11c0-2.84-.6-4.52-2.16-6.12a6.6,6.6,0,0,0-4.76-2h-.32a6.6,6.6,0,0,0-4.76,2c-1.56,1.6-2.16,3.28-2.16,6.12Zm4.08-11.44c0-2.24,1.16-3.76,2.84-3.76h.32c1.68,0,2.84,1.52,2.84,3.76V-7.4c0,2.24-1.16,3.76-2.84,3.76h-.32c-1.68,0-2.84-1.52-2.84-3.76Zm31.88-7.4L51.04-9.48l-6.16-17.2H41.44V0h4.08V-15.2L49-5.44a2.147,2.147,0,0,0,2.04,1.56,2.137,2.137,0,0,0,2-1.56l3.48-9.76V0H60.6V-26.68Zm10.04,0V0h4.08V-10.04c0-.96.52-1.56,1.32-1.56h1.24c3.88,0,6.36-2.64,6.36-6.72v-1.56c0-4.16-2.48-6.8-6.4-6.8Zm4.08,11.16v-7.24h2.56c1.56,0,2.28.92,2.28,2.8v1.68c0,1.8-.76,2.76-2.08,2.76ZM95.16,0h3.88L93.2-24.76C92.84-26.28,92.08-27,90.84-27c-1.28,0-2,.68-2.36,2.24L82.64,0h3.88l1.2-5.08h6.2ZM88.64-9.08l2.2-9.32,2.2,9.32ZM103.6,0h4.08V-17.16L114.32,0h3.52V-26.68h-4.08V-10.6L108.2-25.2a2.387,2.387,0,0,0-2.28-1.76,2.33,2.33,0,0,0-1.64.64c-.52.52-.68,1.12-.68,2.52Zm18.92-26.68,5.92,13.16a4.2,4.2,0,0,1,.44,1.92V0h4.08V-11.64a4.158,4.158,0,0,1,.44-1.88l5.96-13.16h-4.4l-4.04,9.24-4-9.24Z" transform="translate(-2.8 27)" fill="#fff"/>
</svg>
